<?xml version="1.0" encoding="UTF-8" standalone="no"?><svg xmlns:svg="http://www.w3.org/2000/svg" xmlns="http://www.w3.org/2000/svg" version="1.1" style="overflow:visible" viewBox="-250 -250 500 500" height="500px" width="500px"><rect fill-opacity="0" fill="rgb(0,0,0)" height="500" width="500" y="-250" x="-250" /><svg version="1.1" y="-250" x="-250" viewBox="-250 -250 500 500" height="500px" width="500px" style="overflow:visible"><g transform="rotate(0,0,0)" stroke-linejoin="round" fill="#fff"><path stroke-linecap="butt" stroke-linejoin="round" stroke="none" fill="rgb(68,68,68)" d="m-180.7994-189.1171c0-2.51571 1.17011-3.48104 2.54498-3.48104c1.34562 0 2.7205 1.02384 3.13004 4.62189c-0.76057 1.46262-1.95993 2.04767-3.04228 2.04767c-1.46264 0-2.63274-0.848322-2.63274-3.18852zm1.95993 15.2113c4.44641 0 8.60029-3.65656 8.60029-11.5547c0-7.89817-4.00762-11.0282-8.132251-11.0282c-3.89061 0-7.16691 2.74973-7.16691 7.37162c0 4.6804 2.7205 6.84508 6.37709 6.84508c1.25787 0 3.07153-0.789817 4.15388-2.13543c-0.204768 4.70965-1.95993 6.28928-4.18314 6.28928c-1.22861 0-2.57424-0.702059-3.30555-1.52113l-2.74975 3.13001c1.37488 1.37487 3.48107 2.60347 6.40634 2.60347z" /><path stroke-linecap="butt" stroke-linejoin="round" stroke="none" fill="rgb(68,68,68)" d="m-137.739-173.9058c4.56342 0 7.6057-2.54496 7.6057-5.909c0-2.98375-1.57965-4.7974-3.65659-5.87975v-0.146263c1.49189-1.023841 2.74975-2.74973 2.74975-4.82666c0-3.53955-2.60349-5.82124-6.52335-5.82124c-4.00762 0-6.90363 2.25244-6.90363 5.87975c0 2.31094 1.14085 3.97834 2.83751 5.23619v0.146262c-2.01844 1.05309-3.56883 2.77898-3.56883 5.49946c0 3.45179 3.18854 5.82124 7.45944 5.82124zm1.31637-13.1929c-2.13545-0.848321-3.48107-1.7844-3.48107-3.5103c0-1.55038 1.02384-2.28169 2.2232-2.28169c1.52114 0 2.42797 0.994584 2.42797 2.57422c0 1.11159-0.35103 2.22319-1.1701 3.21777zm-1.19936 9.56556c-1.69666 0-3.13004-1.023841-3.13004-2.80824c0-1.37487 0.58505-2.69123 1.46263-3.53955c2.662 1.14085 4.3294 1.95992 4.3294 3.86133c0 1.7259-1.14085 2.48646-2.66199 2.48646z" /><path stroke-linecap="butt" stroke-linejoin="round" stroke="none" fill="rgb(68,68,68)" d="m-101.159-174.3008h5.23623c0.38029-8.51247 0.90684-12.6371 5.9383-18.6046v-3.18852h-14.9189v4.35862h9.36086c-4.09538 5.67498-5.20698 10.2676-5.61652 17.4345z" /><path stroke-linecap="butt" stroke-linejoin="round" stroke="none" fill="rgb(68,68,68)" d="m-56.944-184.466c1.43338 0 2.63274 0.789817 2.63274 3.15927c0 2.48646-1.17011 3.5103-2.54499 3.5103c-1.37487 0-2.7205-1.08234-3.15929-4.70965c0.78983-1.40412 1.98919-1.95992 3.07154-1.95992zm0.20476 10.5601c3.89061 0 7.16691-2.77898 7.16691-7.40088c0-4.70965-2.74975-6.81582-6.37708-6.81582c-1.22862 0-3.07154 0.760564-4.15389 2.13543c0.20477-4.7389 1.98919-6.34779 4.24165-6.34779c1.19936 0 2.54498 0.760565 3.24704 1.52113l2.74976-3.07151c-1.37488-1.40412-3.48107-2.60347-6.34784-2.60347c-4.50491 0-8.65879 3.59805-8.65879 11.467c0 7.92742 4.03687 11.1159 8.132239 11.1159z" /><path stroke-linecap="butt" stroke-linejoin="round" stroke="none" fill="rgb(68,68,68)" d="m-17.131-174.096c4.18314 0 7.86898-2.83749 7.86898-7.72265c0-4.70965-3.10079-6.87433-6.78663-6.87433c-0.81907 0-1.46263 0.11701-2.25246 0.438787l0.32178-3.68581h7.75197v-4.35862h-12.2276l-0.5558 10.7942l2.28171 1.49188c1.28712-0.819069 1.87217-1.05309 3.07153-1.05309c1.87218 0 3.18855 1.1701 3.18855 3.36403c0 2.25244-1.31637 3.39329-3.42257 3.39329c-1.72591 0-3.24705-0.906826-4.47566-2.07692l-2.36947 3.27628c1.72591 1.69664 4.12463 3.013 7.6057 3.013z" /><path stroke-linecap="butt" stroke-linejoin="round" stroke="none" fill="rgb(68,68,68)" d="m19.990999-183.6908l2.48648-4.30011c0.61431-1.2286 1.19936-2.48646 1.75516-3.74432h0.11701c-0.0585 1.40412-0.17551 3.48104-0.17551 4.85591v3.18852zm4.18314 9.39004h4.85594v-5.44096h2.39873v-3.94908h-2.39873v-12.403h-6.43559l-7.57645 12.7541v3.59805h9.1561z" /><path stroke-linecap="butt" stroke-linejoin="round" stroke="none" fill="rgb(68,68,68)" d="m63.153-173.9058c4.3294 0 8.04449-2.28169 8.04449-6.34779c0-2.80824-1.78442-4.56338-4.18314-5.2947v-0.146262c2.31097-0.936079 3.48107-2.63272 3.48107-4.7974c0-3.89058-2.95452-5.99676-7.45943-5.99676c-2.57424 0-4.73894 0.994584-6.75737 2.69123l2.63274 3.18852c1.31637-1.1701 2.42797-1.81365 3.89061-1.81365c1.60889 0 2.48647 0.819069 2.48647 2.31094c0 1.7259-1.1701 2.83749-4.88519 2.83749v3.68581c4.56342 0 5.55801 1.11159 5.55801 2.98375c0 1.63814-1.31637 2.48646-3.33481 2.48646c-1.69666 0-3.2178-0.877574-4.53417-2.10618l-2.39872 3.27628c1.57965 1.8429 4.00762 3.04226 7.45944 3.04226z" /><path stroke-linecap="butt" stroke-linejoin="round" stroke="none" fill="rgb(68,68,68)" d="m96.252999-174.1106h15.0944v-4.38787h-3.97836c-0.9946 0-2.48648 0.146262-3.56883 0.292525c3.3348-3.36403 6.5526-7.48863 6.5526-11.2329c0-4.153852-2.92527-6.84508-7.13766-6.84508c-3.10078 0-5.08997 1.08234-7.22541 3.36403l2.83751 2.80824c1.0531-1.11159 2.19395-2.10618 3.68584-2.10618c1.75516 0 2.83751 1.08234 2.83751 3.07151c0 3.15927-3.65659 7.10835-9.09759 12.052z" /><path stroke-linecap="butt" stroke-linejoin="round" stroke="none" fill="rgb(68,68,68)" d="m137.016-174.3008h13.7488v-4.21236h-3.91986v-17.5807h-3.83211c-1.52114 0.965332-3.04228 1.55038-5.38249 1.98917v3.21777h4.00762v12.3738h-4.62193z" /><path stroke-linecap="butt" stroke-linejoin="round" stroke="none" fill="rgb(68,68,68)" d="m172.064-149.725v4.65114h27.2635v-4.65114z" /><path stroke-linecap="butt" stroke-linejoin="round" stroke="none" fill="rgb(68,68,68)" d="m193.74 183.504c-0.64356 0-0.70206-0.17552-0.70206-1.55039v-14.714h-8.6588c0.0878-2.10618 0.0878-4.30011 0.11701-6.55255h-4.68043c0 2.31094 0 4.50488-0.0292 6.55255h-6.84513v4.30012h6.58185c-0.58505 5.61647-2.42797 10.0336-8.13224 13.0466c1.08235 0.78981 2.42797 2.36945 3.04228 3.48104c6.72812-3.74432 8.92207-9.50705 9.65338-16.5276h4.50492v10.4139c0 4.41713 1.08235 5.67498 4.30015 5.67498h2.69124c2.95453 0 4.03688-1.75514 4.41716-6.87433c-1.17011-0.29252-3.01303-1.08234-3.97837-1.8429c-0.11701 3.77357-0.23402 4.59264-0.90683 4.59264z" /><path stroke-linecap="butt" stroke-linejoin="round" stroke="none" fill="rgb(68,68,68)" d="m178.630999 127.880999c-0.70207 5.67498-2.57424 12.5786-6.90364 16.118099c1.08235 0.70206 2.80826 2.19393 3.65659 3.10076c4.76819-4.153852 6.96214-11.7888 8.22001-18.5461zm-0.76057-6.66957v4.53414h9.91666c0.73132 7.98592 2.45723 16.2351 7.69346 21.208c1.023849-1.1116 2.95452-2.77899 4.18314-3.53955c-5.58727-4.56339-7.10841-13.5732-7.69346-22.2026z" /><path stroke-linecap="butt" stroke-linejoin="round" stroke="none" fill="rgb(68,68,68)" d="m186.894999 102.797c-1.87217 0-2.07694-0.23402-2.07694-2.2817v-6.90358l14.5971-2.07692l-0.67281-4.41713l-13.9243 2.04768v-8.366211h-4.68043v9.03901l-8.1615 1.19935l0.67281 4.32937l7.48869-1.08234v6.20152c0 5.08993 1.40413 6.58181 6.31858 6.58181h5.76278c4.79745 0 6.08456-2.3402 6.61111-8.71724c-1.19936-0.29252-3.21779-1.19935-4.3294-2.01842c-0.38028 5.38245-0.67281 6.4648-2.66199 6.4648z" /><path stroke-linecap="butt" stroke-linejoin="round" stroke="none" fill="rgb(68,68,68)" d="m199.079 46.163999h-10.8235v-6.08451h-4.68043v6.08451h-10.7065v4.44638h26.2104zm-20.4184 7.04985c-1.37488 4.27086-3.91986 8.57097-6.78663 11.0574c1.19937 0.67281 3.36406 2.19394 4.35866 3.07151c2.779-2.98375 5.70427-7.92742 7.45943-12.8418zm9.71189 1.63814c2.45723 3.91983 5.26549 9.06826 6.28933 12.3738l4.85595-2.10618c-1.25787-3.42254-4.30015-8.33695-6.78662-11.9935z" /><path stroke-linecap="butt" stroke-linejoin="round" stroke="none" fill="rgb(68,68,68)" d="m190.01 14.25v6.99134h-6.61111c0.46804-2.10618 0.96534-4.50488 1.46263-6.99134zm4.41715 6.99134v-11.1744h-8.74655c0.26327-1.46262 0.52655-2.89599 0.76057-4.32937h10.6187v-4.21235h-22.9341v4.21235h7.51795c-0.20477 1.40412-0.46805 2.86675-0.70207 4.32937h-5.9383v4.183099h5.14848c-0.4973 2.45721-1.02385 4.85591-1.52114 6.99134h-6.11381v4.21236h26.3567v-4.21236z" /><path stroke-linecap="butt" stroke-linejoin="round" stroke="none" fill="rgb(68,68,68)" d="m177.432-20.429001v-5.06068c0.87758 0.78982 1.87217 2.07693 2.34021 2.98376c3.71509-2.80824 4.47566-7.13761 4.70969-12.3446h1.78441v6.37704c0 2.10618 0.29253 2.83749 0.87758 3.42254c0.58506 0.58505 1.57965 0.87757 2.39872 0.87757h1.84292c0.58506 0 1.37488-0.11701 1.84292-0.35103c0.20477-0.0877 0.38029-0.20476 0.52655-0.32177v4.41712zm2.92527-14.4215c-0.11701 3.74432-0.46805 6.81583-2.92527 8.89275v-8.89275zm13.3977 5.55797c-0.76057-0.35103-1.52114-0.78981-1.95993-1.2286c-0.0292 1.02384-0.0585 1.8429-0.11701 2.19393c-0.0585 0.38029-0.14626 0.52655-0.23402 0.58505c-0.0878 0.0585-0.20477 0.0878-0.32178 0.0878h-0.40954c-0.11701 0-0.23402-0.0585-0.29253-0.14626c-0.0292-0.0878-0.0292-0.32178-0.0292-0.67281v-6.37704h3.36406zm-20.6232-9.65331v24.4258h4.30015v-1.81365h16.323v1.57963h4.50491v-24.1918z" /><path stroke-linecap="butt" stroke-linejoin="round" stroke="none" fill="rgb(68,68,68)" d="m174.55-78.685v4.35862h22.4076v-4.35862zm2.10619 9.33154v4.32936h17.9319v-4.32936zm-3.74434 9.77032v4.35862h25.5668v-4.35862z" /><path stroke-linecap="butt" stroke-linejoin="round" stroke="none" fill="rgb(68,68,68)" d="m175.017999-118.015v4.70964h21.3545v-4.70964zm-2.42797 16.7617v4.91441h26.2104v-4.91441z" /><path stroke-linecap="butt" stroke-linejoin="round" stroke="none" fill="rgb(255,235,190)" d="m-198-167.5105h362.002v361.999h-362.002z" /><path stroke-linecap="butt" stroke-linejoin="round" stroke-width="4" stroke-opacity="1" stroke="rgb(68,68,68)" fill="none" d="m-198-167.5105h362.002v361.999h-362.002zm362.002 321.777h-362.002m362.002-40.2221h-362.002m362.002-40.2221h-362.002m362.002-40.2222h-362.002m362.002-40.2221h-362.002m362.002-40.2222h-362.002m362.002-40.2221h-362.002m362.002-40.2222h-362.002m321.78-40.2221v361.999m-40.2224-361.999v361.999m-40.2224-361.999v361.999m-40.2225-361.999v361.999m-40.2224-361.999v361.999m-40.2225-361.999v361.999m-40.2224-361.999v361.999m-40.2225-361.999v361.999" /></g></svg></svg>